<?xml version="1.0" standalone="no"?> <!DOCTYPE svg PUBLIC "-//W3C//DTD SVG 1.0//EN" "http://www.w3.org/TR/2001/REC-SVG-20010904/DTD/svg10.dtd" > <svg xmlns="http://www.w3.org/2000/svg" width="100%" height="100%">
<defs >
<font id="Pisan-Normal" horiz-adv-x="313" ><font-face
    font-family="Pisan"
    units-per-em="1000"
    panose-1="0 0 0 0 0 0 0 0 0 0"
    ascent="810"
    descent="-297"
    alphabetic="0" />
<missing-glyph horiz-adv-x="364" d="M33 0V666H298V0H33ZM66 33H265V633H66V33Z" />
<glyph unicode=" " glyph-name="space" horiz-adv-x="270" />
<glyph unicode="!" glyph-name="exclam" horiz-adv-x="238" d="M49 111L46 109Q19 100 6 84Q-2 73 -11 48L21 16L51 22Q63 30 64 31Q69 36 72 46Q74 58 74 63Q74 96 49 111ZM65 157H70L81 167Q86 174 86 183Q112 252 158 362Q221 511 236 548Q242 577 242 609Q242
644 235 671T207 723Q201 717 197 717Q198 709 198 705Q198 678 185 640Q177 620 170 601Q141 495 113 389Q78 266 37 181L59 157H65Z" />
<glyph unicode="&quot;" glyph-name="quotedbl" horiz-adv-x="249" d="M28 701Q28 664 23 632T4 570Q9 566 17 566Q25 566 34 570T51 579Q60 589 69 599T82 622T85 640Q85 659 79 675T58 715Q46 718 43 718Q36 718 33 714L28 701ZM157 696Q157 662 151 630T131
566Q136 562 145 562Q153 562 162 565T179 573Q188 583 197 593T211 619Q213 629 213 635Q213 653 205 672T184 710Q179 713 172 713Q165 713 160 708L157 696Z" />
<glyph unicode="#" glyph-name="numbersign" horiz-adv-x="571" d="M162 439Q136 439 114 437T67 429Q66 429 64 432T62 447Q62 460 65 468T76 485Q120 485 140 485T177 483Q186 510 191 533T197 578Q197 601 189 616Q200 625 210 632Q230 648 234 648Q245 637
249 623T253 589Q253 567 245 532T233 479L277 482Q299 487 364 487Q367 511 367 535Q367 561 364 580T352 616Q363 625 373 632Q393 648 397 648Q413 630 422 594T432 489Q475 489 493 497L479 429L422 434Q414 408 412 401T410 389Q411 388 413 387Q413 380 398
331Q398 328 389 307T362 252Q377 250 391 248T413 246Q423 246 428 249L398 181L330 187Q303 131 276 78T245 20H239H234L210 45Q225 81 242 126T267 190Q248 190 205 191T140 192Q116 137 102 107Q84 68 81 64L46 89Q65 137 68 154T75 189Q52 189 41 188T2 181Q6
188 14 202Q31 230 46 249L93 253L148 400L162 439ZM356 437L224 440Q218 421 214 407T209 389Q213 390 213 385T198 331Q198 322 170 261L234 269Q239 270 255 269T295 263L348 400L356 437Z" />
<glyph unicode="$" glyph-name="dollar" horiz-adv-x="424" d="M334 651L230 587Q225 611 225 633Q225 659 238 686Q244 698 244 705Q244 709 241 717Q233 728 217 728Q201 728 185 716T157 680Q149 666 146 650T143 618Q143 593 151 562T157 529Q117 478 101
456Q75 422 51 376Q46 364 46 355Q46 330 63 313Q76 300 94 294T131 288Q153 288 184 295Q270 315 273 315Q278 314 283 310Q283 309 284 308Q294 297 294 285Q294 277 281 247Q274 231 274 220Q223 161 190 136Q139 97 76 85Q65 88 59 94Q55 102 53 111T51 130Q51
144 56 160T81 206Q89 219 89 228Q89 234 83 239L49 238L44 232Q34 206 27 179T20 130Q20 91 42 65Q51 59 57 58Q70 58 87 61T125 70Q131 71 155 28Q167 7 175 7Q211 7 225 11Q228 13 228 24Q228 37 225 74T223 112Q253 131 283 162T343 232Q374 280 375 281Q394
314 394 337Q394 348 392 354L364 387Q346 390 327 390Q289 390 230 373Q143 348 133 346L125 356Q161 412 202 450Q257 501 315 515Q325 512 347 519T383 533L392 587Q386 607 368 625Q354 639 334 651Z" />
<glyph unicode="%" glyph-name="percent" horiz-adv-x="598" d="M177 726L157 712L137 710L120 680L67 645Q61 636 59 634Q59 628 67 611Q71 603 70 594Q73 585 73 576Q73 567 73 564T70 557Q45 472 21 387Q18 376 15 360T12 330Q12 308 18 290T40 256Q47 252
54 252Q67 252 80 260Q82 261 100 276Q134 309 165 357Q188 392 216 450Q236 484 250 521T273 605Q273 626 269 645T253 673L212 680Q204 687 204 703Q204 722 201 726H177ZM166 627Q180 627 191 625T216 608Q220 595 220 578Q220 551 207 519Q185 474 164 429Q139
392 114 355Q84 316 53 306Q47 318 46 329T44 350Q44 373 55 412Q70 464 72 476Q90 518 109 561Q132 608 166 627ZM527 422Q518 422 510 422T496 421Q485 421 476 426L457 404L404 369Q399 360 397 358Q397 321 424 315L422 288Q390 199 358 111Q355 100 352 84T349
54Q349 32 355 14T378 -19Q385 -23 393 -23Q406 -23 415 -18T437 0Q471 33 502 81Q525 116 553 174Q593 239 610 328Q610 350 606 369T590 397L550 404Q538 413 527 422ZM503 352Q517 352 530 348T553 332Q557 319 557 302Q557 271 535 225Q503 158 501 153Q483
123 467 96T420 59Q407 88 407 109Q407 120 413 144T422 184Q423 185 453 277Q471 332 503 352ZM-2 -46L4 -48Q10 -44 69 15T182 132Q243 196 244 201Q278 248 317 303Q329 320 389 405Q443 482 466 513Q483 547 495 585T507 660Q507 687 498 708Q492 710 469 702Q461
700 445 693Q446 688 446 678Q446 637 418 572Q398 525 374 489Q286 381 199 268Q137 188 78 110T-22 -14L-7 -44L-2 -46Z" />
<glyph unicode="&amp;" glyph-name="ampersand" horiz-adv-x="352" d="M140 212Q129 184 122 160T115 112Q115 102 117 81T164 46Q164 40 172 40Q181 40 190 45T200 58Q200 67 179 74Q169 86 165 100T161 132Q161 145 162 166T164 188L172 218Q196 221 238 221Q242
220 249 220Q260 220 283 224T318 228Q328 228 339 225Q352 214 356 214L373 229L362 284L350 295Q318 288 292 283Q229 270 199 265Q214 285 229 306T249 347T274 380Q276 381 310 400Q309 405 306 407T299 411L236 408Q235 408 227 400Q206 353 196 330Q181 296
162 260Q101 252 50 252Q24 252 0 255Q-1 249 -3 244Q-3 234 1 223T18 201Q51 201 71 202T140 212Z" />
<glyph unicode="&apos;" glyph-name="quotesingle" horiz-adv-x="175" d="M58 680Q38 648 18 625T-31 581Q-25 570 -10 567Q8 565 14 564Q27 567 40 571T65 585Q79 601 84 626T90 677Q86 684 80 687T68 688L58 680Z" />
<glyph unicode="(" glyph-name="parenleft" horiz-adv-x="236" d="M177 800H172L166 786Q146 775 121 756T76 703Q38 628 19 538Q-3 435 -3 267Q-3 243 -3 219T-2 172Q-2 122 27 53T92 -57Q96 -52 100 -48Q119 -48 119 -31Q90 45 68 108T46 227Q41 290 41 338Q41
508 85 628T211 773L183 802L177 800Z" />
<glyph unicode=")" glyph-name="parenright" horiz-adv-x="238" d="M53 -57L58 -55Q66 -43 126 106T186 265Q203 453 221 642Q223 660 223 671Q223 712 211 748T172 810Q167 807 162 804Q164 798 164 788T164 768Q164 723 160 674T148 589Q148 444 126 320Q109
223 75 119Q48 42 21 -35L48 -57H53Z" />
<glyph unicode="*" glyph-name="asterisk" horiz-adv-x="332" d="M184 523Q217 524 241 525T282 539Q292 545 292 557Q292 561 290 573T287 590Q274 603 259 603Q246 603 246 588Q246 583 247 580Q243 567 237 564T220 560Q212 560 203 560T184 557Q187 573 198
596T216 653Q209 649 202 649Q193 651 189 651Q186 651 181 646Q158 608 151 595Q145 591 139 587Q124 618 110 650Q99 649 89 648Q66 642 65 643L84 589L3 588L-1 544Q10 544 34 546T68 549Q91 549 123 543Q108 545 99 509T84 467T71 442T54 423Q52 417 53 415T56
411L108 385Q114 388 118 399T123 435Q123 446 123 457T122 479Q122 499 126 509T142 519Q172 477 187 453T210 409Q216 411 222 414Q238 425 240 443Q220 475 208 492Q203 499 184 523Z" />
<glyph unicode="+" glyph-name="plus" horiz-adv-x="352" d="M140 212Q129 184 122 160T115 112Q115 102 117 81T164 46Q164 40 172 40Q181 40 190 45T200 58Q200 67 179 74Q169 86 165 100T161 132Q161 145 162 166T164 188L172 218Q196 221 238 221Q242 220
249 220Q260 220 283 224T318 228Q328 228 339 225Q352 214 356 214L373 229L362 284L350 295Q318 288 292 283Q229 270 199 265Q214 285 229 306T249 347T274 380Q276 381 310 400Q309 405 306 407T299 411L236 408Q235 408 227 400Q206 353 196 330Q181 296 162
260Q101 252 50 252Q24 252 0 255Q-1 249 -3 244Q-3 234 1 223T18 201Q51 201 71 202T140 212Z" />
<glyph unicode="," glyph-name="comma" horiz-adv-x="127" d="M46 49Q26 3 7 -30Q-16 -70 -42 -94Q-35 -113 -20 -119Q-9 -122 2 -125Q15 -118 29 -110T53 -90Q68 -68 72 -33T77 44Q74 53 69 59T57 59Q54 57 51 55T46 49Z" />
<glyph unicode="-" glyph-name="hyphen" horiz-adv-x="393" d="M345 256L336 311L325 323Q242 303 171 292T50 280H33Q27 280 21 280Q11 282 7 282Q5 275 4 269Q4 258 7 248T21 227Q74 227 125 237T221 247Q235 245 262 250T297 255Q309 255 315 253L345 256Z" />
<glyph unicode="." glyph-name="period" horiz-adv-x="158" d="M57 102L53 100L-4 37L28 5L65 4Q74 13 81 35Q83 47 83 52Q83 85 57 102Z" />
<glyph unicode="/" glyph-name="slash" horiz-adv-x="571" d="M-48 -14L-42 -16Q-33 -9 25 49Q63 87 137 164Q197 227 199 232Q238 287 272 336T343 437Q388 501 420 544Q437 580 449 618T461 692Q461 719 452 740Q448 741 423 733Q415 731 399 724Q400 719 400
709Q400 666 373 603Q353 556 328 520Q237 408 153 300Q91 220 30 140Q-25 69 -68 18L-53 -13L-48 -14Z" />
<glyph unicode="0" glyph-name="zero" horiz-adv-x="381" d="M278 686Q245 664 241 661Q223 648 220 638Q178 597 137 556Q100 509 100 478Q100 456 114 441Q117 438 113 424T105 394Q67 305 30 216Q18 171 15 156Q8 123 8 94Q8 68 14 49T37 13Q48 8 67 4T94 -2Q135
-2 166 31Q189 58 212 86Q220 100 262 148Q296 187 306 218Q334 271 363 350Q387 417 412 485Q442 567 468 617Q471 625 471 631Q471 643 462 655T436 680Q423 693 402 693Q389 693 375 690Q333 681 330 681Q323 681 319 682Q318 685 306 685Q279 685 278 686ZM395
661H402L406 654Q406 567 376 481Q351 409 302 328Q274 281 211 193Q206 188 176 153Q135 106 103 92Q88 92 77 114Q102 277 150 395Q207 535 302 622Q340 653 392 662L395 661Z" />
<glyph unicode="1" glyph-name="one" horiz-adv-x="184" d="M139 714L109 697L86 601Q83 595 83 593Q83 586 97 586Q102 586 108 586T124 588Q131 588 131 585L14 214Q11 196 9 177T7 138Q7 96 14 63T40 0Q44 0 46 1Q50 6 51 7Q51 45 64 95Q71 122 79 149Q107
280 135 412Q169 559 212 668L188 697L139 714Z" />
<glyph unicode="2" glyph-name="two" horiz-adv-x="527" d="M123 585Q124 584 136 585T148 583L220 607Q232 610 248 613T276 616Q305 616 328 603Q332 599 332 581Q320 541 305 515Q294 497 234 426Q221 415 163 331T76 223Q50 191 30 153Q6 107 6 75Q6 54 18
37Q37 18 59 12T110 5Q123 5 155 7T188 9Q192 11 337 59Q426 89 471 137Q469 156 457 171T426 190Q395 178 390 176Q371 167 355 151Q355 124 322 96Q306 83 290 70Q249 54 216 46T146 37Q122 37 100 41T55 55L48 59Q46 65 46 70Q46 109 136 207Q173 246 211 286Q212
292 247 341Q255 352 278 382Q322 426 351 479Q385 541 392 603Q390 622 380 634Q378 636 336 666Q305 685 283 694Q252 707 226 707Q217 707 212 706L206 705L197 694Q177 689 154 684T105 679L5 654L-5 647Q-5 638 -7 627Q-13 594 -13 587Q-13 573 -9 564T9 548L18
542L67 540Q75 557 88 567T123 585Z" />
<glyph unicode="3" glyph-name="three" horiz-adv-x="432" d="M278 614Q296 617 317 617Q340 617 355 614T385 599Q388 594 388 588Q388 581 387 577Q369 532 323 495Q294 472 236 441Q222 422 222 394Q222 374 229 360Q243 344 298 327T367 284V278Q346 219 299
176Q260 140 199 111Q189 111 166 107T131 103Q110 103 96 114Q75 114 54 105Q30 93 19 88Q12 77 12 62Q12 50 16 39T30 18Q102 18 209 86Q282 132 313 146Q342 177 372 209Q404 249 404 292Q398 326 360 351Q326 371 292 391Q294 395 310 404Q366 449 394 483Q437
535 450 592Q450 616 427 636T399 661Q364 684 342 695Q308 712 282 712L273 710Q271 708 234 703T195 697Q173 695 169 694T160 692Q149 692 139 703T121 724L74 708Q69 703 68 699Q54 688 54 669Q54 654 65 633Q80 603 81 601T87 599T94 598L179 599Q213 606
233 608T278 614Z" />
<glyph unicode="4" glyph-name="four" horiz-adv-x="472" d="M243 732H238L220 693Q216 679 193 650Q165 615 137 598Q106 554 35 497Q-7 463 -7 403Q-7 395 -6 385T-5 369T-2 358Q4 351 14 348T34 345H48Q66 351 88 353T135 356H160Q199 356 221 361T262 387Q265
387 267 380Q212 259 199 223Q164 127 164 48V35Q164 14 165 5T179 -9Q188 -9 195 -13Q199 -14 207 -14Q234 -14 246 7Q245 16 223 26Q211 31 209 39Q208 51 214 72T220 100Q240 174 260 249Q265 278 279 322Q287 348 304 392Q327 403 346 414Q371 428 371 433Q371
436 360 436Q350 436 343 435T313 431Q318 451 323 459Q335 479 336 481L364 538Q372 552 381 564T404 585Q404 608 428 631Q457 659 463 673V688L404 706Q380 696 365 676T343 627Q312 560 299 522T274 429Q270 426 205 420T96 414Q56 414 53 420Q56 451 84 473T140
517Q182 549 199 564Q230 590 249 622L292 712L243 732Z" />
<glyph unicode="5" glyph-name="five" horiz-adv-x="462" d="M33 273Q124 319 175 337T257 356Q279 356 296 347Q314 335 332 323Q341 312 351 300T365 260Q371 243 371 238Q352 209 290 150Q223 86 201 81L114 49Q107 57 99 65T83 83Q68 80 58 87Q46 99 37 107L-2
85L-7 74Q-16 59 -16 46Q-16 28 -3 5Q7 -12 18 -30L30 -31L118 -13Q135 -6 152 -1T199 13Q207 10 211 5Q213 7 216 7Q242 17 311 84T399 179Q407 195 416 213T425 247Q425 256 422 267Q400 312 379 358Q358 392 319 409Q302 417 280 417Q254 417 222 407Q142 382
125 382Q140 445 157 489Q178 543 207 580L223 590Q232 590 242 597Q265 613 274 614Q318 643 377 660T490 677V688Q475 715 449 724T386 734Q377 734 358 733T330 732L94 666L92 657Q89 649 89 639Q89 626 93 614T107 590Q120 581 125 577T130 566L112 529L123
517Q118 507 90 432Q55 339 7 315V304Q8 295 20 288T33 273Z" />
<glyph unicode="6" glyph-name="six" horiz-adv-x="485" d="M337 654Q340 668 350 682T361 702Q361 709 350 716T310 736Q285 730 265 705Q213 639 202 633L214 603Q200 577 186 550T157 501Q108 398 59 296Q4 171 -5 70Q6 43 21 29T65 5Q114 -12 172 -12Q201
-12 220 -8T255 9Q334 34 384 122Q427 197 427 267Q427 309 408 319L367 343Q340 339 311 339Q295 339 266 341T225 343Q200 343 180 338T139 317L107 244Q110 234 121 222T139 208T155 206Q175 206 205 245Q221 266 243 271Q244 270 278 275T313 278Q328 275 340
261T352 212Q341 125 298 89Q261 58 190 58Q149 58 122 61Q92 66 77 68Q65 62 51 83Q41 98 41 122Q41 133 42 140L77 247Q110 303 125 336Q144 377 157 426Q186 476 195 492Q212 521 225 546Q233 548 234 550Q247 565 248 567Q255 577 260 587T277 603T299 605L337
654Z" />
<glyph unicode="7" glyph-name="seven" horiz-adv-x="546" d="M427 587L513 631Q501 656 486 673Q465 697 446 697Q435 699 429 689Q424 686 422 682Q415 678 403 678Q393 678 368 683T332 688Q319 688 311 682Q287 676 150 662Q42 651 -4 624L24 589Q27 588 37
588Q56 588 137 600T255 612Q277 612 286 610Q208 543 150 448Q102 370 65 274Q47 227 13 118Q11 106 11 101Q11 64 46 26Q57 21 69 16T90 11Q97 11 103 14L107 22Q95 41 90 62T85 108Q85 139 91 170Q94 184 118 271Q153 350 210 417Q248 461 327 531Q341 537 400
573Q424 588 427 587Z" />
<glyph unicode="8" glyph-name="eight" horiz-adv-x="464" d="M123 505Q130 524 177 558Q234 599 278 599Q290 601 307 603T341 605Q362 605 377 602T404 590Q407 587 407 580Q407 573 406 568Q389 523 326 472Q277 433 223 406Q193 406 157 428Q117 453 117 483Q117
493 123 505ZM149 371Q118 371 62 341Q-2 307 4 276Q4 134 27 67T105 0Q180 0 238 32Q281 56 345 120Q380 159 398 192Q424 238 424 283Q417 318 380 343Q345 363 311 383Q315 389 328 395Q398 449 431 498Q459 539 469 583Q469 606 452 624Q429 643 418 652Q387
674 362 686Q328 703 301 703H293Q291 701 267 697T221 690T194 685T179 684Q168 684 158 695T140 715L94 699Q89 694 88 691Q74 680 74 661Q74 645 90 616Q100 598 102 592Q112 589 114 589Q42 542 42 500Q42 452 149 371ZM247 352Q326 323 348 314T387 276L392
241Q372 187 335 153Q291 120 271 105Q198 59 105 59Q91 68 80 100T68 169Q68 238 105 284Q151 342 247 352Z" />
<glyph unicode="9" glyph-name="nine" horiz-adv-x="421" d="M376 527Q372 519 369 512Q363 493 360 494Q345 477 340 472T302 459Q292 449 265 440T200 431Q172 431 133 437Q112 442 96 459T79 509Q91 599 134 634Q171 664 243 664Q270 664 282 663Q318 658 354
654Q365 660 380 638Q392 620 392 597Q392 587 391 581Q379 553 376 527ZM426 511Q435 529 442 547T450 578Q450 585 445 606T436 651Q418 699 365 715Q343 723 314 728T258 734Q233 734 212 729T177 712Q97 687 48 599Q6 524 6 453Q6 411 24 402L63 378Q94 361
135 361Q166 361 227 373T310 387Q293 342 276 297Q262 272 237 230Q221 202 206 174Q200 172 199 170Q193 164 188 158Q178 146 173 135T154 118T131 116L94 68Q90 53 81 38T71 19Q71 12 83 4T123 -14Q160 -6 175 27T199 74L216 118Q246 169 276 221Q290 253 304
281Q355 381 358 389Q370 385 384 395Q400 409 406 413L437 485Q435 500 426 511Z" />
<glyph unicode=":" glyph-name="colon" horiz-adv-x="102" d="M61 98L58 96L2 33L31 2L70 0Q78 10 85 31Q87 43 87 50Q87 65 81 78T61 98ZM70 437L67 436Q39 427 26 409Q19 399 11 373L40 343L70 350Q90 358 94 371Q95 377 95 388Q95 405 90 417T70 437Z" />
<glyph unicode=";" glyph-name="semicolon" horiz-adv-x="142" d="M44 55Q7 -8 -46 -44Q-39 -56 -25 -58T0 -63Q13 -59 27 -55T51 -40Q66 -24 71 -1T76 51Q65 68 55 61L44 55ZM63 380L59 378L4 315L35 283L72 282Q75 286 79 295T86 312T88 331Q88 364 63 380Z" />
<glyph unicode="&lt;" glyph-name="less" horiz-adv-x="292" d="M212 133Q168 151 137 201Q114 238 92 304Q83 327 130 376Q163 410 197 444Q204 463 212 485T221 524Q221 535 216 548Q193 509 113 439Q57 390 1 341Q5 317 27 274Q56 217 85 161Q96 131 115 114T164
84L240 76L212 133Z" />
<glyph unicode="=" glyph-name="equal" horiz-adv-x="415" d="M206 319Q143 309 57 309Q42 309 28 309Q11 311 4 311Q2 304 0 298Q0 286 3 277T19 256Q62 256 93 261Q127 268 140 270T186 275T239 278Q243 277 251 277Q262 277 286 281T322 285Q335 285 341 283Q351
274 358 271L374 284L365 341L354 354Q309 342 270 333T206 319ZM204 169Q168 159 109 154T4 148L40 121Q70 124 88 124Q105 124 120 122T149 118Q179 123 190 125Q222 130 241 130Q256 129 272 132Q322 142 325 142Q337 142 343 140Q352 144 358 144L387 160L367
202L348 212Q307 198 271 187T204 169Z" />
<glyph unicode="&gt;" glyph-name="greater" horiz-adv-x="292" d="M228 341Q224 316 208 290Q163 214 162 212Q152 182 134 165T84 135L7 127L35 184Q82 203 101 227Q117 247 137 304Q139 310 139 315Q139 344 93 404Q75 426 58 449Q53 463 48 477Q35 511 35
528Q35 543 40 553Q66 509 128 442Q168 399 228 341Z" />
<glyph unicode="?" glyph-name="question" horiz-adv-x="408" d="M68 86L63 85Q34 69 16 49Q4 36 -11 9L9 -14L40 -2Q59 11 68 24Q81 47 81 64Q81 80 68 86ZM79 142Q95 146 105 155Q117 170 129 181Q148 210 155 241T163 306Q163 317 163 327T158 364Q155 371
153 378Q208 380 238 382Q294 387 319 408Q348 437 364 531Q369 563 378 652Q358 689 313 701Q244 719 221 733Q204 725 192 715Q175 701 172 688Q178 675 185 662T204 640Q225 646 248 649T295 653Q312 653 320 652T334 645Q343 624 343 599Q343 571 332 537T301
461Q297 459 293 457Q275 448 256 432Q245 426 235 424T212 422Q203 422 186 424T161 426Q145 426 133 422Q117 412 104 396T88 364Q100 335 105 316T111 272Q111 244 98 214Q92 203 83 201Q60 187 60 165Q60 154 65 147T79 142Z" />
<glyph unicode="@" glyph-name="at" horiz-adv-x="511" d="M445 412Q435 385 416 341Q390 280 364 220Q368 208 382 214Q389 214 396 202T410 179L405 162Q364 135 328 97T255 20L186 -6Q121 -1 83 5T30 26Q15 37 7 47T-1 71Q-1 78 2 84Q25 130 42 209Q55 276
68 344Q85 422 111 470Q119 499 148 517Q165 528 175 544Q188 557 220 563T291 569Q369 569 420 552Q456 512 456 474Q456 450 445 412ZM282 335Q279 349 268 365T247 387H241Q230 374 215 339T185 285Q169 246 156 212Q140 170 129 134Q140 131 152 137T174 153Q183
165 225 213Q282 277 282 335ZM255 105Q251 121 248 130T232 139Q193 122 181 118Q151 108 124 108Q108 108 95 112Q105 203 168 330Q199 391 230 452L306 442L308 358L335 330Q321 309 310 273Q293 217 290 210Q286 188 284 173T282 143Q327 213 350 291Q367 347
384 460Q381 467 330 491T271 515Q255 508 238 508Q227 508 217 508Q207 506 195 492Q145 423 98 274Q55 139 55 84Q55 71 59 70L129 57Q136 55 146 54T163 53Q197 53 223 72Q235 81 255 105Z" />
<glyph unicode="A" glyph-name="A" horiz-adv-x="561" d="M520 717Q513 719 506 714T492 708Q486 709 480 709T469 709Q439 709 405 701T337 684Q331 675 318 670T292 662L306 659Q317 659 323 657T332 640Q334 636 336 633Q339 632 342 631T345 627Q346 615 346
610Q346 545 294 466Q219 352 212 336H201Q183 338 183 354Q185 361 185 366T183 376L153 383Q146 370 146 357Q146 343 155 323Q180 268 181 265Q165 217 151 191Q131 153 103 131Q98 138 94 140Q88 158 88 178Q88 208 103 232Q100 236 98 239Q93 243 82 243Q67
243 59 234Q53 218 47 203Q36 175 21 155Q21 142 8 89Q2 65 2 49Q2 24 18 7L61 -4L86 31Q86 36 89 48T94 65Q157 159 221 253Q228 252 247 250T268 247Q287 247 308 256Q312 255 320 255Q333 255 365 268Q382 275 391 275Q394 275 400 274T408 265V233Q408 162
406 115T395 16L426 2Q437 2 446 14Q444 17 442 31T434 53Q434 130 439 192Q440 210 452 310Q476 339 492 348T529 360L536 376L529 389Q523 391 515 387T500 381T485 375T471 372Q460 372 459 382L492 520L505 522Q521 580 538 638Q533 644 533 655Q533 661 539
680Q542 690 542 696Q536 712 520 717ZM418 608Q424 604 426 598L391 360L264 332Q270 337 271 339Q277 347 271 350L415 612L418 608Z" />
<glyph unicode="B" glyph-name="B" horiz-adv-x="492" d="M283 719L276 717L267 706Q247 702 226 698T185 694Q165 694 151 698T123 715L77 696L72 688Q61 676 61 661Q61 645 73 626T96 590L109 589L193 598Q199 594 199 590Q190 517 153 441Q137 394 88 268Q45
158 25 96Q-6 1 -16 -79Q-11 -71 11 -60T39 -37Q39 -26 44 -6T49 24Q72 101 95 178Q123 272 144 330Q172 409 206 474Q228 491 244 526Q283 612 290 620Q319 628 348 628Q377 628 399 617Q402 614 402 596Q388 547 347 507Q320 480 265 446Q255 430 255 407Q255
385 265 365Q279 351 337 339T411 302V295Q396 235 354 188Q321 151 260 112Q256 111 215 102Q198 98 187 98Q169 98 157 107Q134 103 108 89Q95 81 83 74Q78 65 78 53Q78 39 83 27T100 5Q165 13 240 67Q304 113 369 160Q394 191 419 223Q447 262 447 298Q447 308
446 313Q436 352 379 376Q333 396 325 400Q327 405 331 408T341 415Q408 480 434 528Q457 570 464 617Q461 640 443 655Q418 671 406 680Q364 702 354 706Q322 720 297 720Q288 720 283 719Z" />
<glyph unicode="C" glyph-name="C" horiz-adv-x="461" d="M317 705H313Q199 553 133 431Q54 284 7 114Q7 102 7 93T6 75Q6 46 11 34T30 9Q44 4 63 4Q86 4 119 15Q141 22 174 37Q242 87 275 113Q334 158 371 204Q428 279 485 354Q480 359 480 362L448 369L426 362L362
319L350 301L356 274Q352 271 349 263T345 253Q255 168 166 83Q153 79 121 57Q93 38 76 38Q69 38 65 39Q57 60 57 79Q57 100 68 144T79 211Q90 228 106 270T137 337Q149 364 157 381Q169 405 181 424Q216 482 251 540L290 583L293 577Q274 513 256 449Q256 435
257 429T265 411Q275 400 294 400Q301 400 314 402T334 404L364 526Q358 539 358 558Q358 575 363 596Q375 647 375 659Q375 668 373 675T364 689T345 703L317 705Z" />
<glyph unicode="D" glyph-name="D" horiz-adv-x="532" d="M424 715Q418 712 399 712T367 708Q342 708 293 697T220 686Q192 686 169 697Q129 697 116 670V661Q121 642 136 623Q142 616 167 592H253Q256 592 258 585L188 515Q189 504 195 491Q197 486 206 471L98
188Q46 147 14 86Q6 77 6 64Q6 49 17 32Q33 11 39 2L77 -30L149 -7Q154 -6 164 13Q172 21 233 59Q256 73 276 96Q336 158 397 221Q415 243 463 300Q535 385 568 437Q586 472 597 505T609 571Q609 591 604 609T587 643Q535 716 445 716Q431 716 424 715ZM454 636L544
620L548 614Q548 553 525 487Q508 437 471 373Q437 331 404 289Q331 201 267 170Q239 146 211 123Q177 96 146 86Q152 150 157 195T190 271Q232 370 268 445Q312 536 355 607Q379 617 404 625T454 636Z" />
<glyph unicode="E" glyph-name="E" horiz-adv-x="465" d="M183 464L236 583L395 634L402 647L501 671L507 675Q489 699 458 706T384 714H367Q252 697 137 681Q123 681 115 682T90 686Q82 673 82 655Q82 634 94 616L140 589L130 559Q136 551 139 550L179 544L148
461Q137 443 127 425Q125 422 123 420Q116 416 107 406Q97 385 70 374Q44 365 18 356Q9 348 9 335Q9 321 17 306T48 291Q53 291 63 293Q68 293 72 286Q75 277 72 270T65 256T57 244Q55 233 16 135Q0 95 0 61Q7 55 12 41T22 24Q31 21 42 14T60 6T72 4T84 4Q117 4
149 17T212 55Q272 101 332 148Q331 155 324 160T315 167Q290 163 261 152Q175 118 167 116Q155 116 132 108T99 99Q93 99 85 102L81 111Q78 129 78 149Q78 181 86 223Q91 252 102 295Q114 307 118 309T133 311Q171 327 255 339T376 371Q394 371 412 377T448 391Q450
397 450 399L437 409Q398 430 346 430Q317 430 213 409Q163 399 133 399L183 464Z" />
<glyph unicode="F" glyph-name="F" horiz-adv-x="474" d="M382 738L120 664L114 656Q111 647 111 638Q111 623 116 610T131 580Q133 577 146 569T160 552L137 509L149 498Q117 411 100 370Q68 295 21 271V258Q21 248 35 240T49 223Q49 167 45 139Q38 91 18 63Q12
32 6 2Q6 -13 13 -24L58 -40Q61 -38 68 -38Q78 -39 83 -39Q92 -39 96 -33Q86 10 80 47T73 121Q73 157 79 185T102 241Q141 268 203 290Q384 354 385 355Q388 359 387 365T382 373Q371 378 359 380T334 382Q306 382 265 371Q171 346 151 346Q170 418 189 465Q214
525 246 568L262 580Q274 580 290 593T319 607Q368 638 428 658T542 678Q555 678 562 677V689Q545 719 517 728T448 738Q435 738 423 738T398 737Q387 737 382 738Z" />
<glyph unicode="G" glyph-name="G" horiz-adv-x="464" d="M332 721Q331 721 324 718T311 717Q285 711 266 687Q213 619 204 614L216 583Q202 557 188 532T157 481Q108 379 60 277Q5 153 -4 51Q8 25 23 10T67 -14Q79 -18 94 -18Q115 -18 139 -6T209 44Q232 73 301
148Q407 263 439 332L400 360Q329 349 267 323T155 258L142 234Q146 220 150 214T162 207T179 205Q202 205 228 220Q304 263 306 264Q314 261 315 258Q315 253 312 250Q305 243 299 236Q251 182 199 136Q139 84 79 49Q67 43 53 64Q43 79 43 103Q43 114 44 121L79
229Q108 277 126 318T157 406Q187 456 196 472Q212 499 227 527Q235 529 236 531Q243 540 250 549T262 568T280 583T301 585L358 557Q357 561 357 568Q357 586 369 621T382 672Q382 693 367 708L332 721Z" />
<glyph unicode="H" glyph-name="H" horiz-adv-x="466" d="M243 705Q224 698 213 678Q209 671 195 636L183 624L67 345L-5 339Q-18 335 -18 332Q-15 303 -1 276T33 230Q29 207 25 183T21 133Q23 120 24 70T35 -5H46Q51 12 69 117Q82 194 105 238Q200 276 226 289T286
327Q294 325 297 321Q291 271 273 229Q270 200 260 171Q232 91 230 76Q227 65 227 57Q227 29 247 18Q270 14 278 30Q278 69 285 105Q310 234 311 243Q320 255 330 293Q348 362 376 378Q385 387 394 391T420 402Q420 406 421 410T418 415Q407 415 401 415Q390 415
383 422Q381 426 381 427Q378 434 378 436Q387 455 396 474T422 515Q424 521 482 615Q503 649 509 679L496 694Q489 695 482 694T455 688Q418 637 381 549Q350 472 319 395L175 378Q173 381 173 382Q170 388 170 391Q186 431 204 474T247 550Q261 577 280 602Q287
611 319 649L313 694L243 705Z" />
<glyph unicode="I" glyph-name="I" horiz-adv-x="221" d="M183 706H177L167 693Q162 684 162 671Q146 619 115 526Q89 451 63 374T13 221Q6 187 6 145Q6 103 13 70T40 7Q45 7 47 10T51 14Q51 48 59 86Q71 133 77 157Q106 288 135 419Q171 572 211 675L188 706H183Z" />
<glyph unicode="J" glyph-name="J" horiz-adv-x="404" d="M426 721Q404 721 336 696Q301 683 283 683Q274 683 269 684Q251 670 227 665T171 660H148Q130 660 114 660T81 654L83 631L102 617L133 585Q155 574 166 574Q174 574 197 577Q209 570 214 559Q212 549
207 536T202 515Q202 511 204 501Q192 460 169 352Q133 183 92 116L81 121L58 157Q54 159 44 156T33 153Q19 148 12 131T5 94Q13 84 18 66T30 26L76 -2Q92 -2 94 0Q118 29 140 74T193 218Q228 390 264 562Q309 578 349 603Q382 623 426 659Q428 667 447 699Q455
713 454 721H426Z" />
<glyph unicode="K" glyph-name="K" horiz-adv-x="546" d="M454 712Q450 713 448 705Q451 697 463 687T476 666Q428 594 367 534Q298 467 227 431L192 454Q204 500 228 545Q248 582 282 627L283 649Q284 652 284 655T284 660Q284 687 260 705Q227 709 193 682Q146
645 137 642Q135 637 136 632T139 624Q140 617 151 617L166 620Q168 619 168 617T170 614Q118 480 97 422Q59 317 35 224Q7 119 -2 24L18 5Q23 7 38 7T58 11Q64 47 75 97T94 184Q101 206 105 221T121 236Q137 155 164 93Q195 22 241 -26Q254 -38 271 -49T306 -68Q314
-67 324 -67T340 -66Q358 -66 375 -67T411 -69Q441 -69 460 -63T494 -39Q498 -33 498 -26Q482 -41 449 -41Q442 -41 426 -40T402 -39Q305 -23 269 57Q244 110 230 166T216 280Q216 306 219 327T230 371Q256 387 282 404Q417 517 553 631Q560 639 560 649Q560 658
553 669T542 684L454 712Z" />
<glyph unicode="L" glyph-name="L" horiz-adv-x="415" d="M325 721Q295 714 264 691Q184 631 174 627L158 631Q155 629 154 621T151 608Q150 592 160 580Q176 562 192 544Q185 526 174 508T153 471Q123 424 91 343Q6 125 -2 109Q5 80 25 55Q41 34 70 11Q75 6 83
6Q99 6 103 16Q131 65 179 99Q213 123 280 153Q294 162 311 162Q320 162 325 158L332 131L350 123Q352 123 359 130T367 166Q367 188 360 202Q353 209 350 209Q293 209 220 168Q127 116 102 109Q102 203 156 318Q173 355 260 505Q290 555 319 590Q356 636 394 662Q391
668 389 675Q384 695 368 705T325 721Z" />
<glyph unicode="M" glyph-name="M" horiz-adv-x="652" d="M306 724Q277 708 245 673Q226 652 207 631Q203 622 183 596Q167 575 167 560Q167 556 169 548Q169 546 172 544T177 544L202 557Q177 488 135 400Q97 322 60 245Q17 151 -5 79Q-3 61 20 35Q36 18 53 2Q65
1 70 1Q79 1 83 4Q83 94 109 191T179 376Q190 395 214 475Q234 540 260 561Q241 454 222 347Q222 315 232 286Q244 274 258 265T292 251Q318 257 339 273Q345 278 395 336Q399 338 430 376Q442 390 457 394Q457 371 453 315T449 242Q449 213 451 195T461 153Q465
152 483 137Q504 128 526 121T568 114Q591 114 605 125L614 158Q614 162 611 165T608 170Q617 178 617 181Q615 186 614 189T608 193Q581 193 562 183L559 158Q556 154 554 154T550 153L542 162Q520 184 511 212T501 274Q501 316 513 369T538 472Q542 480 568 546Q586
593 607 614V622Q597 631 583 635T554 640Q547 640 535 638Q503 604 452 534Q385 442 371 424Q323 365 276 330Q276 419 304 516T380 686L369 703L306 724Z" />
<glyph unicode="N" glyph-name="N" horiz-adv-x="599" d="M659 719Q635 709 621 680Q598 632 596 629Q577 619 567 578Q562 556 548 544Q536 522 470 319Q444 240 411 193Q391 229 384 267T376 354Q376 387 379 446T383 526Q394 550 396 599T400 654L394 670Q374
688 345 688Q322 688 304 675L283 645L304 564Q267 501 227 410Q193 329 159 249Q117 150 86 90Q83 85 76 82T68 85V186L18 179Q10 163 7 143T4 102V90Q12 77 13 42T24 -5L63 -14Q77 -8 80 -7Q87 -3 88 4Q107 49 127 94Q130 105 141 124T158 158Q173 186 224 313Q264
412 302 457Q305 456 307 457Q307 455 308 454Q308 248 365 57Q369 41 378 29T400 11L441 4Q449 14 461 22Q461 53 460 68Q455 145 455 151Q479 248 518 356Q553 453 596 544Q612 554 630 585T661 627Q664 641 671 658T686 697Q677 716 659 719Z" />
<glyph unicode="O" glyph-name="O" horiz-adv-x="448" d="M286 715L251 712L243 706Q170 615 135 571T63 503L57 483Q59 481 64 466T77 450Q79 448 82 447T88 445Q95 447 102 450Q106 446 109 437Q77 365 62 331Q38 277 18 225Q6 180 3 165Q-4 132 -4 103Q-4 78
2 57T24 19Q34 16 53 13T81 7Q123 7 154 39Q177 66 201 94Q209 108 249 155Q284 195 293 227Q322 281 351 358Q375 425 400 493Q429 572 455 624Q458 632 458 639Q458 651 449 664T424 688Q411 701 390 701Q374 701 358 697Q317 687 306 689Q305 691 306 697T302
706L286 715ZM385 670H391L394 662Q394 575 364 488Q340 418 290 336Q259 286 199 202Q168 164 151 145Q120 111 92 98Q82 98 76 104T65 121Q90 285 137 402Q195 543 290 629Q310 646 331 655T380 671L385 670Z" />
<glyph unicode="P" glyph-name="P" horiz-adv-x="481" d="M295 714L265 712Q258 707 255 706T251 699L199 656Q188 653 177 653Q166 653 152 656T123 666Q119 663 116 661L109 636Q106 630 91 626T76 614V581Q78 576 81 575Q98 560 116 545Q129 536 140 536L162
524Q174 524 175 518Q139 426 126 401Q91 336 40 304Q35 289 35 273Q35 256 40 243Q17 159 -5 75Q-5 43 13 18Q20 14 30 10T53 5L59 11Q74 23 80 37T83 61Q72 66 67 68T59 76L98 223Q150 242 191 261Q242 284 278 308Q305 324 344 365Q391 415 408 429Q420 435
437 453Q459 477 464 481Q505 515 546 550Q548 558 552 559Q555 570 555 581Q555 616 531 640Q508 677 453 689Q421 696 352 696L295 714ZM392 640L489 633Q491 632 496 627T507 614Q507 570 479 531Q469 517 417 464Q389 439 348 414Q312 392 276 371Q203 339
130 308Q130 352 158 405Q182 449 207 494Q232 509 252 539Q265 559 284 599Q299 617 330 625T392 640Z" />
<glyph unicode="Q" glyph-name="Q" horiz-adv-x="401" d="M278 719Q272 720 264 718T249 715Q212 694 180 649Q132 583 85 518L63 508Q56 500 56 489Q56 481 59 471T67 452Q72 446 79 446Q83 446 90 448T100 450Q107 450 111 445Q111 437 103 434Q93 403 58 322Q3
194 3 121Q3 77 19 33Q28 21 42 17T75 12Q97 13 107 13L179 -98Q185 -100 196 -108T214 -121Q231 -129 253 -129Q278 -129 301 -119T348 -90Q352 -87 357 -77T356 -65Q352 -68 347 -71T337 -83Q308 -102 272 -102Q256 -102 244 -98Q212 -79 195 -52T162 21Q232
135 302 249Q334 334 370 439Q401 532 432 631Q436 639 436 651Q436 678 415 696Q406 702 397 704T376 706Q359 706 329 698T295 689Q293 692 293 700Q293 714 290 715Q285 715 282 716T278 719ZM365 677H378Q381 657 381 637Q381 573 356 495Q336 434 302 365Q262
288 237 249Q201 194 153 146Q148 149 143 157Q132 177 125 181L77 166Q75 171 75 183Q75 194 88 247Q94 271 94 286Q100 302 127 378Q162 476 190 520Q226 567 263 615Q310 667 365 677ZM74 120L90 86Q83 79 77 77Q69 77 66 85T63 103L70 121L74 120Z" />
<glyph unicode="R" glyph-name="R" horiz-adv-x="517" d="M339 714Q325 717 314 717Q295 717 276 711Q265 708 241 696L229 691L204 706Q196 708 187 709T173 710Q156 710 151 701Q154 691 154 666T164 622Q169 614 171 605T173 587Q173 566 159 541Q137 503 116
466Q110 447 45 298Q-1 193 -1 124Q-1 105 2 85Q15 76 33 76Q46 76 51 85Q50 93 50 101T50 115Q50 173 71 243Q88 299 120 365Q148 443 174 490Q208 551 255 594Q294 608 338 616T421 625Q471 625 511 612L517 599Q497 554 432 511Q400 490 369 469Q294 424 292
423Q245 399 202 399Q180 392 166 377T144 339L158 317Q158 218 163 172Q172 94 199 24Q228 -24 230 -26Q251 -54 282 -63Q295 -66 305 -68T325 -70Q342 -70 352 -61V-53Q354 -46 357 -43T369 -31L394 -28V-16L364 5Q354 5 346 3T337 -7L311 -57Q299 -59 286 -53Q249
-37 239 19Q234 48 229 77Q229 181 230 202T239 278Q275 332 343 380Q405 420 468 460Q541 509 581 559Q589 568 589 580Q589 592 580 612Q575 621 571 631Q538 677 467 694Q379 707 339 714Z" />
<glyph unicode="S" glyph-name="S" horiz-adv-x="422" d="M315 701L274 694Q225 646 177 598Q104 489 31 380Q27 371 27 357Q27 328 44 306Q58 290 74 284T111 277Q134 277 164 285Q246 307 253 308Q258 306 260 305T265 301Q275 288 275 274Q275 264 262 228Q255
209 255 197Q204 128 171 99Q120 53 57 37Q45 42 40 49Q37 58 35 70T32 91Q32 114 40 136Q43 145 59 179Q64 186 66 192T69 206Q69 216 61 220L30 218L24 211Q13 175 8 152Q0 117 0 91Q0 46 22 16L37 7Q132 18 200 69Q258 113 323 212Q347 251 356 268Q375 305
375 333Q375 346 373 352L345 392Q328 396 306 396Q266 396 209 377Q161 361 114 345Q108 347 105 358Q145 430 176 468Q225 526 282 544Q295 538 303 535T317 532Q322 532 327 535L373 627Q365 651 349 670T315 701Z" />
<glyph unicode="T" glyph-name="T" horiz-adv-x="457" d="M518 629L509 689Q495 686 485 686Q474 686 469 686T459 688Q450 684 440 680T418 676Q409 676 395 682Q386 698 369 709T334 721Q323 721 319 710L313 703Q299 693 285 677T258 645Q242 640 123 618Q39
603 -2 571L-7 548Q21 538 65 533T182 527H220L53 96Q53 71 62 52T94 14Q103 10 112 6T132 2Q141 2 149 7L151 16Q141 29 136 47T130 83Q130 115 147 176Q160 222 162 234Q181 289 200 345Q223 407 244 448Q271 499 306 535Q313 548 317 548L391 553Q395 557 400
561L501 573Q504 587 507 601Q512 615 518 629Z" />
<glyph unicode="U" glyph-name="U" horiz-adv-x="503" d="M157 617Q154 588 134 537Q123 510 112 483Q101 443 68 335Q18 173 7 81Q6 74 6 60Q6 47 9 37T22 21Q46 13 52 12T67 10Q77 10 88 16Q132 64 173 123Q208 173 245 234Q279 290 313 346Q322 352 325 346Q325
325 316 294Q293 216 292 202Q287 190 286 157T280 105Q287 88 292 70T304 30Q315 19 335 19Q338 19 341 19Q345 21 346 21L376 49Q386 49 389 55Q393 64 387 70L356 88Q340 110 337 140Q337 246 360 341T436 518Q438 541 471 606Q486 636 486 655Q485 662 485
666L422 649L404 614L395 603Q369 505 317 409Q276 334 206 239Q141 153 76 68Q71 67 64 66T57 70Q57 106 66 152T86 247T102 320Q112 361 127 395Q133 435 208 576Q241 639 246 689Q243 693 241 696T234 699Q220 699 214 693Q197 691 187 681Q172 665 158 649Q156
638 163 626Q166 620 170 615Q163 615 157 617Z" />
<glyph unicode="V" glyph-name="V" horiz-adv-x="381" d="M157 699Q135 688 123 678Q107 664 96 643Q96 580 73 491T27 319Q2 217 2 146Q3 144 3 139Q3 125 2 111T0 82Q0 57 6 43T31 19Q35 18 41 18T55 17Q76 17 94 22T120 39Q185 177 251 315Q327 460 426 562Q431
568 431 570L395 616L362 605Q332 529 282 440Q237 362 192 285Q136 186 109 121Q102 112 99 111T94 116Q94 238 123 367Q149 485 201 610Q209 639 217 669Q217 684 207 694L157 699Z" />
<glyph unicode="W" glyph-name="W" horiz-adv-x="605" d="M659 640Q659 644 672 679Q676 690 686 714L682 715Q600 651 533 565Q475 490 420 393Q394 347 325 207Q319 207 319 216Q317 223 316 239T314 272Q314 331 340 421Q375 543 380 571Q380 595 360 598L310
577Q306 569 303 550T297 522Q264 458 226 393Q213 371 151 268Q114 207 77 146L68 149Q60 164 60 184Q60 196 63 213T70 253Q75 263 80 276Q93 311 94 312T101 318T109 328Q136 415 177 489Q180 501 207 566Q228 617 228 648Q228 666 223 679L211 686Q194 687
184 687Q170 687 162 685T149 673Q123 627 94 538Q57 425 42 387Q42 374 32 327Q26 299 26 288Q25 278 21 220T4 123Q7 112 7 102Q7 94 5 77T3 51Q3 34 11 22L49 7Q61 13 65 24Q119 136 130 159Q169 237 200 289Q237 351 282 406Q290 403 290 391L255 37Q257 28
260 24Q273 9 293 9Q296 9 302 11Q312 18 312 32Q312 36 310 44Q313 48 315 49T319 51Q328 70 335 102Q352 178 358 193Q387 256 420 314Q449 366 490 427Q538 499 560 529Q596 580 659 640Z" />
<glyph unicode="X" glyph-name="X" horiz-adv-x="484" d="M214 689Q213 686 193 659Q177 638 181 622Q191 556 194 521T197 459Q197 383 177 327Q154 262 100 214Q48 145 -4 76V68Q-2 56 3 48T18 35Q24 36 30 37Q55 90 81 144Q104 184 159 250Q183 278 207 306Q236
194 262 118Q296 21 337 -53Q320 16 304 86Q299 116 298 146T296 223V264Q296 298 294 329T286 389Q310 433 361 487Q377 504 517 631L533 622L555 640Q559 650 552 661T542 677Q536 680 527 680Q518 680 513 679T499 671Q480 636 390 559Q344 519 325 492L304
480Q300 473 296 468T286 463Q282 463 278 466Q269 581 260 697Q254 701 253 703Q247 710 242 710Q238 710 226 697Q219 690 214 689Z" />
<glyph unicode="Y" glyph-name="Y" horiz-adv-x="418" d="M216 728H211L160 670Q156 654 124 611Q107 589 103 573Q103 517 77 443T26 300Q-2 215 -2 155L0 144Q9 134 19 133T51 131Q100 148 146 202Q182 247 218 293Q223 293 223 286Q169 168 155 130Q120 34
120 -44Q119 -62 119 -70Q119 -96 135 -102Q144 -102 151 -105Q161 -107 165 -107Q177 -107 186 -101T202 -86Q200 -76 184 -69T166 -55Q165 -42 171 -21T177 7Q196 82 216 157Q226 209 248 275Q266 329 292 389Q311 428 321 446Q339 479 360 492Q360 516 383 538Q413
567 418 580V594L360 614Q335 603 321 583T299 535Q198 398 86 225Q73 210 67 205T57 207Q57 244 72 303Q83 343 88 362Q90 365 121 449T202 557L267 710L216 728Z" />
<glyph unicode="Z" glyph-name="Z" horiz-adv-x="427" d="M371 719L354 714L328 701Q233 678 183 661Q143 647 103 627Q98 620 98 612Q98 593 114 579Q122 577 126 569T135 552Q139 550 146 543T157 534T169 526T184 519Q190 519 195 524L193 557Q216 589 274
607Q316 618 336 624Q368 629 399 629Q378 574 325 502Q278 441 232 380L188 327L148 288Q132 265 80 211Q2 130 2 73Q2 65 3 56T7 37L46 -9Q86 -9 141 19Q211 55 232 60T268 81T284 112L308 127V133L83 116Q77 120 77 127Q105 173 148 224Q176 257 288 374Q295
381 386 520Q419 571 455 594L468 627Q465 659 444 682Q427 701 397 714L371 719Z" />
<glyph unicode="[" glyph-name="bracketleft" horiz-adv-x="296" d="M211 724Q211 729 184 729Q163 729 118 727T66 724Q31 654 18 539T4 285Q4 199 5 137T10 -10Q10 -46 102 -55Q155 -60 176 -83Q178 -83 178 -71Q178 -63 177 -37T176 -10Q99 -10 85 25Q66 74
66 333Q66 536 75 594T116 661Q163 670 211 679V724Z" />
<glyph unicode="\" glyph-name="backslash" horiz-adv-x="480" d="M440 -14L434 -16Q425 -9 367 49Q329 87 255 164Q195 227 193 232Q154 287 120 336T49 437Q4 501 -28 544Q-45 580 -57 618T-69 692Q-69 719 -60 740Q-56 741 -31 733Q-23 731 -7 724Q-8 719 -8
709Q-8 666 19 603Q39 556 64 520Q155 408 239 300Q301 220 362 140Q417 69 460 18L445 -13L440 -14Z" />
<glyph unicode="]" glyph-name="bracketright" horiz-adv-x="293" d="M186 -21V101Q192 109 200 276T206 457Q213 486 215 506T218 551Q218 569 217 595T215 622Q215 648 217 666T229 724Q231 741 217 749T178 758Q151 758 122 748T80 724Q111 707 134 685Q142
674 150 664Q152 652 152 617Q152 503 143 293T128 49Q128 27 91 7Q63 -8 13 -21V-77L186 -21Z" />
<glyph unicode="^" glyph-name="asciicircum" horiz-adv-x="364" d="M48 495Q65 539 81 548Q112 558 148 570Q163 576 170 576Q177 576 185 568Q198 555 207 548Q233 538 246 533Q270 524 287 524Q298 524 311 529Q274 552 243 590Q190 656 185 661Q160 657 118
635Q61 605 5 576Q-6 572 -6 562Q-6 547 21 520Q30 511 48 495Z" />
<glyph unicode="_" glyph-name="underscore" horiz-adv-x="400" d="M0 -66V-117H400V-66H0Z" />
<glyph unicode="a" glyph-name="a" horiz-adv-x="325" d="M174 413L149 406Q104 315 59 224Q9 114 0 28Q4 27 11 21T22 11Q34 7 47 7Q72 7 102 27Q145 56 151 58Q155 58 157 57T162 53Q165 42 170 30T183 11Q195 -4 212 -10T250 -17Q270 -17 279 -15T296 -6T310
7Q313 19 306 19Q294 25 280 25Q266 25 255 21T225 9Q216 20 212 34T207 65Q207 79 209 93T216 137Q221 149 238 206Q251 248 265 271L236 302L234 395L174 413ZM167 334Q180 327 191 311T207 276Q207 218 164 164Q125 119 86 74Q77 65 63 58T37 53Q65 144 100
221Q131 277 162 334H167Z" />
<glyph unicode="b" glyph-name="b" horiz-adv-x="360" d="M280 693Q238 659 199 606Q166 561 139 508Q146 497 146 483Q146 470 137 440T127 394Q115 348 91 321T24 283L4 256Q4 243 5 234T10 220T18 214T24 212Q28 213 32 221T44 232L61 239Q67 234 67 232Q62
216 55 182T42 121Q42 110 34 84T26 44Q26 33 28 27T41 13T61 6Q67 6 74 11Q83 4 92 -2Q162 23 211 115Q252 194 293 273Q306 285 321 312T345 350Q348 350 351 351T358 355Q361 355 362 358T364 365L325 404Q320 408 311 410T298 415T288 417T279 417Q256 417
230 405Q171 378 157 378Q179 445 228 530Q301 656 308 670Q300 693 280 693ZM249 371Q252 371 267 365Q271 354 271 342Q271 324 263 304Q249 271 236 239Q222 220 186 137Q158 73 125 51H94L74 30L67 31Q52 56 52 89Q52 108 58 134Q60 143 81 211Q127 333 249
371Z" />
<glyph unicode="c" glyph-name="c" horiz-adv-x="354" d="M241 439L197 426Q184 405 167 382T133 341Q95 285 85 271Q55 227 40 199T14 140T3 79Q3 40 22 14Q43 5 67 5Q85 5 105 9T149 21Q196 52 244 83Q277 114 292 129Q318 156 321 183Q303 191 287 191Q274
191 261 188T236 177L211 151Q213 139 209 129T201 111Q152 79 128 65Q85 40 48 40Q39 57 39 79Q39 97 46 120Q58 156 70 193Q93 245 106 271Q130 319 162 328Q166 325 167 324T169 323L216 260H234Q239 261 245 270T255 284Q263 305 269 332T275 379Q275 405 267
427L241 439Z" />
<glyph unicode="d" glyph-name="d" horiz-adv-x="389" d="M380 651Q347 621 321 561Q284 475 247 389Q241 392 241 409Q239 415 236 418T223 427Q218 432 206 432Q196 432 185 428T166 420Q126 359 86 296T19 172Q9 135 7 127Q1 100 1 80Q1 59 6 44T28 16Q39 12
50 12Q60 12 67 13Q105 26 137 72Q185 141 190 146Q194 146 196 145Q196 144 197 144Q197 126 193 89T188 39Q188 23 190 10T199 -16Q202 -20 216 -22Q238 -22 257 -11Q269 -4 288 13L297 30L292 37L269 48L211 13Q208 13 207 14T204 16Q204 86 226 179Q240 238
273 339Q299 418 332 502Q360 572 395 651H380ZM172 352H177Q184 328 184 299Q184 258 167 204L102 112L63 76L48 68Q42 68 40 74Q39 82 39 85Q39 115 55 152T86 223L167 352H172Z" />
<glyph unicode="e" glyph-name="e" horiz-adv-x="328" d="M243 480L212 471Q150 398 149 396Q118 352 111 308Q108 290 92 290Q90 291 76 294T58 302L49 311Q46 319 38 323T21 327Q16 327 12 327Q8 325 7 325Q0 315 -7 304T-14 280L46 209Q32 174 23 142Q11 100
11 70Q11 47 19 26Q49 3 84 3Q98 3 109 7Q162 32 209 73T288 164Q285 167 285 169T283 175L230 183Q228 177 230 166T232 152Q232 145 227 140L197 112Q189 100 184 98L92 40Q86 40 74 38T59 35Q51 35 46 39Q42 45 39 58T33 85Q36 125 49 161T88 214L255 265Q258
272 262 280Q262 304 268 335Q282 408 282 424Q282 454 269 480H243ZM244 418L230 332H214L197 315L144 308Q142 309 141 309Q136 312 137 317L160 354L230 415Q239 418 244 418Z" />
<glyph unicode="f" glyph-name="f" horiz-adv-x="306" d="M319 752Q277 704 242 622Q223 577 189 472T131 317Q126 313 115 309T93 302T76 298Q64 298 42 313T4 328Q0 321 0 310Q0 299 2 289T11 267Q20 241 51 225Q75 213 100 201Q94 153 78 97T40 -4Q50 -16 55
-22Q65 -33 77 -33L94 -26L100 -9L130 204Q135 213 140 222T155 243Q206 271 209 273Q235 289 258 308L273 341L166 321Q166 336 170 351Q171 356 175 364Q176 367 180 376T186 400Q239 520 293 640Q299 640 302 636V627Q299 614 288 567T271 499Q275 487 277 483Q284
471 297 468Q313 485 322 519T341 585Q355 660 369 736Q368 741 364 745Q357 752 350 752H319Z" />
<glyph unicode="g" glyph-name="g" horiz-adv-x="323" d="M162 431Q158 431 154 427T148 420Q100 334 85 306Q53 247 24 186Q13 140 2 94Q2 73 14 58Q34 46 55 35Q91 40 131 79Q179 126 193 133Q193 111 181 84Q147 7 146 2Q97 -111 48 -225Q39 -231 24 -229Q19
-226 15 -212T2 -197H-16L-33 -232Q-23 -251 -14 -270Q-3 -287 14 -297H24Q68 -248 108 -162Q151 -58 175 -5Q196 44 219 117Q278 303 283 317Q282 319 280 322T273 328Q261 351 228 351Q218 351 207 348Q196 340 185 332Q174 322 174 310L175 301L183 295L220
317Q222 317 224 317Q226 314 227 313Q220 292 214 271Q205 246 188 238Q186 231 183 230Q157 192 132 154Q97 107 59 90Q46 93 46 100Q49 128 65 172Q87 233 90 243Q114 287 126 307Q149 345 179 358Q187 356 190 356Q202 359 209 360Q216 365 220 373Q224 385
227 392Q228 405 221 414Q210 423 207 426L162 431Z" />
<glyph unicode="h" glyph-name="h" horiz-adv-x="415" d="M264 682L244 673Q234 666 227 653T214 627Q180 606 164 542Q143 456 129 432Q63 225 -2 19Q2 7 13 4L57 -2L59 4Q90 63 121 123Q182 221 244 319L251 310Q251 279 243 231Q225 124 225 98Q225 67 230
43T251 -5L260 -9Q270 -4 309 0T365 19Q373 33 377 40Q385 55 385 63Q385 70 380 77H371Q367 75 318 34Q299 18 283 18Q259 69 259 137Q259 198 281 278Q289 306 323 409Q316 415 305 415Q295 415 289 412T273 402Q268 388 255 379T227 364L72 127Q65 129 65 140Q70
171 79 200T103 271Q123 324 155 391Q206 499 212 513Q238 569 276 627Q281 637 285 648T289 667Q289 677 284 682H264Z" />
<glyph unicode="i" glyph-name="i" horiz-adv-x="183" d="M153 424L100 418Q97 416 96 413T94 409Q76 353 67 324Q52 277 37 236T14 166Q3 125 3 91Q3 77 4 70Q4 51 14 36T44 13Q58 9 72 5Q80 4 87 10T96 24Q102 48 83 59Q79 58 71 50T57 46Q47 60 44 75T41 111Q41
126 42 141T44 172Q44 207 62 245Q88 299 114 354Q117 374 139 391T162 409Q155 420 153 424ZM174 585L170 583L116 520L146 489L184 487Q189 493 193 501Q197 513 199 518Q201 530 201 536Q201 569 174 585Z" />
<glyph unicode="j" glyph-name="j" horiz-adv-x="216" d="M288 605Q222 580 157 580Q155 569 164 558T181 538Q194 533 208 529T236 526Q257 529 278 547Q294 561 311 583Q311 603 301 605H288ZM157 480L140 471Q108 326 76 182Q33 11 -24 -85L-49 -65Q-52 -67
-54 -68T-57 -70L-77 -109Q-59 -130 -27 -130Q-20 -130 -16 -129Q-6 -129 4 -119T21 -94L40 -30Q98 142 157 315Q164 328 175 371T201 431Q214 438 218 445L212 468L157 480Z" />
<glyph unicode="k" glyph-name="k" horiz-adv-x="391" d="M348 796L280 786Q261 745 221 679Q173 601 158 573Q124 510 109 455Q95 428 83 332Q77 285 65 260Q59 253 49 253Q43 253 38 253T28 249Q28 232 40 211Q44 196 44 178Q44 148 34 112Q4 4 4 2L11 -2Q24
-12 35 -16T62 -21Q77 -21 86 -13L96 11Q93 18 90 24T86 39Q93 119 100 199Q107 210 118 221T140 236Q159 215 167 162Q171 135 176 107T196 58T239 19L313 -2L348 24Q353 34 353 47Q353 58 348 65L319 72L295 59Q255 84 233 139Q217 178 206 249Q201 279 227 307Q249
327 258 336Q279 370 283 376Q297 402 297 422Q297 426 295 436Q264 400 213 362Q198 351 123 301L112 302L109 317Q115 365 134 418Q150 464 177 515Q197 561 238 619Q297 703 304 715L336 721Q353 729 363 747T373 787Q373 789 369 791T360 796H348Z" />
<glyph unicode="l" glyph-name="l" horiz-adv-x="199" d="M230 679L195 673Q170 644 155 616T135 550Q117 497 97 448Q62 364 28 280Q13 197 -1 114Q-1 86 6 63T31 19Q35 19 44 17T58 15Q65 15 68 22Q68 193 117 368T256 661Q256 672 249 679H230Z" />
<glyph unicode="m" glyph-name="m" horiz-adv-x="487" d="M175 452L49 337Q49 333 53 327L96 321Q97 313 92 295T86 269Q78 244 65 218T40 167Q37 154 21 117T4 52Q5 44 5 40Q6 26 14 15T33 -2H44L53 4Q72 23 72 57Q98 122 142 186Q150 198 230 304Q240 312 249
312Q256 312 256 304Q256 269 244 222Q216 112 216 86Q216 67 218 57Q225 52 231 52Q236 52 239 55Q246 65 265 106Q275 127 283 141T314 201Q348 270 374 301Q391 323 400 331T417 332L373 51Q371 47 362 35T354 13L373 -2Q376 2 377 2T382 4T392 7T399 14Q399
81 422 184Q439 253 446 286Q450 310 456 345T463 395Q457 398 450 399T432 400Q386 378 344 311Q289 224 276 211Q276 241 288 280T317 350Q320 359 317 367T308 382H290Q268 378 251 362Q233 341 225 332T173 259Q142 214 116 195Q134 252 159 306Q181 352 212
402L238 424Q239 432 230 439L175 452Z" />
<glyph unicode="n" glyph-name="n" horiz-adv-x="339" d="M162 452L98 395Q98 352 80 298Q32 154 30 137Q23 115 18 95Q10 59 2 24Q4 18 11 11T22 2L40 5Q42 11 44 14T61 30Q86 67 111 105Q140 150 157 190Q178 219 188 232Q206 256 227 264Q236 264 236 256Q229
227 222 196T214 138Q214 116 220 92Q226 74 236 61T260 44Q273 48 274 58L273 65L265 72L243 81Q239 91 237 104T235 128Q235 175 279 262T323 391Q319 393 309 393Q299 393 276 386T247 378L85 148Q83 148 81 155Q112 255 130 297Q160 368 204 415Q207 422 205
429T199 437L162 452Z" />
<glyph unicode="o" glyph-name="o" horiz-adv-x="282" d="M172 478L151 464L131 463L114 432L61 397L55 387Q55 375 59 362T81 343L90 341Q53 240 16 139Q13 127 10 110T7 80Q7 59 13 41T35 9Q42 5 50 5Q62 5 72 11T94 28Q130 62 160 109Q178 138 211 202Q230
234 244 273T267 356Q267 378 263 397T247 426L207 432Q199 439 199 456Q199 474 195 478H172ZM160 380Q174 380 188 376T211 360Q215 348 215 332Q215 299 193 253Q175 217 158 181Q116 117 108 107Q78 68 48 58Q43 68 41 79T39 101Q39 126 50 164Q65 215 67 229Q85
271 104 313Q127 360 160 380Z" />
<glyph unicode="p" glyph-name="p" horiz-adv-x="378" d="M192 454L146 415Q143 405 140 395Q137 390 121 388T103 380T101 366Q101 353 108 339T123 313Q119 297 112 288Q82 224 53 145Q35 96 3 -10Q-21 -88 -42 -164Q-54 -176 -59 -196T-70 -234Q-59 -254 -54
-261T-39 -271Q-32 -271 -21 -275T-5 -280Q2 -282 11 -280T22 -272T24 -258Q24 -248 20 -240Q9 -217 9 -207Q23 -72 68 64T179 306L207 304Q220 319 241 328T283 341L334 330Q336 327 336 319Q301 228 268 175Q225 105 164 57L98 74L92 67Q90 57 90 53Q90 38 100
20Q106 10 111 4L137 -4Q163 11 183 36Q195 51 218 90Q267 117 312 187Q377 286 394 306Q399 312 399 321Q399 326 396 334T389 352Q366 379 330 394T253 415L246 434L192 454Z" />
<glyph unicode="q" glyph-name="q" horiz-adv-x="391" d="M260 436Q210 410 162 362Q105 305 35 195Q33 188 19 154Q2 111 2 86Q2 60 16 35Q19 31 27 26Q42 17 57 9Q68 4 82 4Q104 4 131 22Q203 69 206 70Q209 68 209 61Q204 45 198 18T190 -30Q186 -41 165 -141Q157
-180 144 -202Q154 -224 163 -237T190 -258Q201 -256 213 -254T229 -243T239 -227Q274 -183 296 -164Q335 -132 373 -135L376 -129Q368 -118 365 -116Q348 -104 325 -104Q308 -104 254 -122Q227 -131 212 -131Q212 -52 240 42Q264 121 304 205Q324 247 378 346L328
374Q325 377 325 385Q327 398 327 404Q320 411 319 415Q315 423 294 429T260 436ZM276 399H286Q297 394 297 379Q297 372 295 369Q295 326 280 288Q237 219 194 151Q139 76 70 42H58Q47 49 47 67Q47 78 48 85T51 102Q57 159 98 219Q133 269 169 319L276 399Z" />
<glyph unicode="r" glyph-name="r" horiz-adv-x="319" d="M112 434L90 427Q80 405 74 384T67 343Q67 334 68 330Q60 292 38 211Q5 87 5 16Q10 7 21 0Q28 -4 35 -7Q49 16 96 143Q130 235 174 269L218 190L227 193Q234 219 270 291Q299 350 299 389L283 397Q261
397 240 381Q183 338 179 337Q174 323 160 302Q143 277 139 269Q101 220 63 172L58 181Q107 304 121 336Q142 382 166 422Q166 434 160 436L112 434Z" />
<glyph unicode="s" glyph-name="s" horiz-adv-x="290" d="M170 468Q148 463 127 436Q110 414 103 408Q96 397 59 350Q10 287 10 238Q10 228 11 223L39 184L61 172Q83 172 94 183L183 244L193 241L206 206Q199 193 197 188Q192 178 195 170Q194 162 189 155T177
139Q164 129 124 81Q103 56 88 44Q83 37 70 31T51 28Q47 37 47 49Q47 62 58 91T69 136Q69 141 67 151L28 148L7 135Q5 132 3 123T-2 107Q1 81 4 53T26 13Q38 5 51 5Q64 5 86 16Q132 28 183 85T253 207Q260 221 263 233T267 253Q272 261 272 270Q272 278 267 286Q260
290 255 293Q242 298 228 298Q206 298 183 289T137 264Q130 260 124 257T111 254Q104 254 103 262Q103 290 130 313Q165 344 171 353T177 365L201 383H234Q238 387 245 391T255 399V411Q253 419 246 429T236 448Q227 462 212 465T170 468Z" />
<glyph unicode="t" glyph-name="t" d="M229 619Q197 590 168 530Q125 441 120 432H111L58 468L49 463L37 422Q63 388 90 355Q95 339 95 317Q95 272 49 177T3 30Q3 17 4 11Q10 1 16 -8T28 -21L46 -18L67 -28Q67 -24 74 -21L85 -4Q73 16 68 36T62 80Q62 120 77 170Q100
244 123 319L262 394L383 498L382 515L323 498Q314 484 310 483L188 448Q188 468 199 492Q200 493 220 531Q222 544 229 558Q245 591 246 594L239 614Q236 617 235 617Q231 620 229 619Z" />
<glyph unicode="u" glyph-name="u" horiz-adv-x="371" d="M157 427L153 426L77 371V362Q83 341 83 321Q83 286 30 145Q5 79 5 30Q-3 6 16 2L74 -2L212 142Q220 133 220 112Q226 76 241 51T288 7Q300 0 315 0Q333 0 345 9Q351 18 348 21Q341 28 332 29T310 31Q296
40 292 46Q271 88 271 140Q271 174 281 217T321 323Q324 326 336 334L341 365Q337 368 325 372T304 382Q288 384 276 378T255 360Q249 354 249 337Q224 248 171 169Q131 109 55 28Q53 30 48 39Q48 150 132 284Q173 348 214 413L212 424L157 427Z" />
<glyph unicode="v" glyph-name="v" horiz-adv-x="367" d="M98 427H90L26 374V364L48 330Q18 273 7 195Q0 144 0 59Q2 52 15 40T30 14Q43 5 48 3T61 4L83 31Q167 134 251 238Q273 268 295 298Q322 330 355 330L367 362L317 382Q301 375 297 362L299 346Q268 290
211 226Q167 177 105 121Q99 109 90 98T70 86Q61 100 61 121Q61 136 66 165T70 209Q78 222 110 303Q133 361 164 382Q166 385 166 392Q166 399 164 404T160 415L98 427Z" />
<glyph unicode="w" glyph-name="w" horiz-adv-x="408" d="M127 426Q125 422 121 422Q94 361 61 256Q33 166 5 77Q2 69 2 60Q2 46 7 33T22 16L40 7Q56 14 73 31Q77 35 118 88Q145 124 172 160Q176 160 178 159Q178 158 179 158Q182 142 182 86T207 5L223 -2L244
7Q258 34 264 44Q277 67 293 83Q313 115 334 167Q390 305 397 319Q398 339 398 350Q398 356 397 360L319 364Q319 362 318 361T315 358L323 330Q331 326 334 321V306Q297 217 279 176Q246 104 207 63L199 76Q205 124 220 179Q231 219 255 288Q257 305 257 315Q257
332 247 337L211 327L199 295Q192 289 188 278Q176 240 175 238Q107 154 40 70Q35 70 31 76Q52 167 70 216Q85 257 109 295Q138 340 167 385Q174 394 174 407Q174 420 166 426H127Z" />
<glyph unicode="x" glyph-name="x" horiz-adv-x="369" d="M144 457L109 441L123 334Q124 327 129 319Q145 293 146 290Q146 280 160 251Q167 237 167 223Q160 201 143 183T105 153Q90 122 56 83Q27 51 -2 19L9 5Q24 0 34 0Q53 0 79 15Q117 37 123 39L186 123Q193
123 197 121Q217 75 228 50T253 7Q259 2 268 -2T287 -7Q296 -7 302 -2L304 16Q299 21 299 24L253 33L209 148L348 339L369 409Q347 387 325 365Q322 363 252 285Q225 255 202 244Q199 248 196 249T193 251Q186 271 178 348T144 457Z" />
<glyph unicode="y" glyph-name="y" horiz-adv-x="327" d="M151 455L146 459L112 404L92 400L57 360Q61 350 63 337T65 311Q65 271 34 181T3 44Q3 29 4 22Q9 13 13 8T21 0Q33 0 54 9Q64 13 74 18Q99 24 120 45Q136 63 153 81L169 100L175 98L120 -90L157 -98Q156
-99 156 -97T157 -88Q176 30 221 136Q262 234 328 325Q332 335 334 342T336 356Q336 364 330 369L313 376Q308 383 306 385T300 387T292 389L247 358Q237 313 199 260Q149 189 139 170Q129 161 87 104Q57 63 26 57Q21 60 21 63Q33 125 68 197Q100 259 133 321Q170
395 181 448L151 455Z" />
<glyph unicode="z" glyph-name="z" horiz-adv-x="404" d="M153 422L148 424L92 380Q87 365 87 349Q87 320 103 310L267 327Q240 292 189 244Q144 203 100 163Q45 112 13 76Q13 68 11 55T8 39Q8 29 13 21L26 14Q48 14 76 18Q147 28 160 28Q180 28 188 27T211 19L223
5Q229 3 233 3Q244 3 251 13L262 49L244 65Q229 73 207 73Q194 73 169 69T131 63T103 60Q83 60 70 72Q97 121 152 174Q186 207 256 264Q272 280 331 323Q378 358 399 391L186 399L153 422Z" />
<glyph unicode="~" glyph-name="asciitilde" horiz-adv-x="492" d="M407 326L431 254Q407 216 383 200T318 184Q286 184 253 198Q244 202 216 217Q201 225 183 225Q173 225 148 221T106 217Q66 217 47 211T17 180L1 270Q18 303 36 312T106 322Q131 322 160 313Q179
307 217 290Q241 279 263 274T300 268Q305 268 310 268Q316 270 318 270Q370 284 379 290T407 326Z" />
<glyph unicode="&#xa0;" glyph-name="nbspace" horiz-adv-x="450" />
<glyph unicode="&#xa2;" glyph-name="cent" horiz-adv-x="355" d="M238 579L148 507Q147 518 146 530Q146 579 154 618Q166 677 193 706Q178 721 170 721Q165 721 155 715T139 706Q119 655 110 585T94 450Q79 427 69 407Q52 372 35 337Q19 311 9 280T-1 219Q-1
200 3 185T19 155Q42 144 67 144Q79 144 94 147T130 157Q126 150 126 133Q126 102 135 63T155 2Q181 2 193 5T212 21Q198 48 188 85T178 156Q178 168 179 173T199 193T241 223Q272 254 287 269Q315 297 319 323Q312 327 302 329T282 331Q268 331 256 328T232 319L207
292Q209 280 203 268T195 251Q180 243 145 218Q91 180 53 180Q46 181 42 181Q34 197 34 217Q34 239 46 272Q64 322 67 334Q71 341 93 391Q122 459 158 469Q161 466 163 465T166 464L212 400H230Q237 402 243 411T251 424Q270 473 270 522Q270 547 264 568L238 579Z"
/>
<glyph unicode="&#xa3;" glyph-name="sterling" horiz-adv-x="424" d="M334 719Q304 713 273 689Q194 629 183 625L169 629Q166 627 165 621T162 607Q161 598 167 594T184 589Q194 589 211 592Q250 599 255 599Q236 581 205 535T164 471Q148 445 133 420Q112 418
99 416Q61 408 35 387Q19 379 16 367T11 345Q35 348 55 351T109 362Q59 234 9 107Q16 78 34 55T81 9Q86 4 93 4Q108 4 112 14Q142 65 189 85Q252 112 256 114Q270 121 291 121Q306 121 311 116L341 130L358 121Q361 121 367 127Q373 131 375 144T377 164Q377 188
369 201Q362 207 358 207Q302 207 229 166Q137 114 111 107Q111 157 138 243Q157 303 186 373Q190 381 205 385T241 390Q291 390 327 374Q340 369 348 387T356 425Q356 429 356 433Q355 433 354 434Q334 441 308 441Q281 441 241 433Q226 431 212 429L256 511Q281
551 323 593Q361 631 404 661Q401 664 400 667T399 673Q394 693 377 702T334 719Z" />
<glyph unicode="&#xa9;" glyph-name="copyright" horiz-adv-x="652" d="M288 56Q169 56 84 137T-1 340Q-1 461 83 542T288 623Q406 623 490 542T574 340Q574 219 490 138T288 56ZM57 340Q57 238 123 171T288 103Q384 103 450 170T517 340Q517 440 451 508T288
576Q190 576 124 509T57 340ZM386 287H437Q427 232 389 199T298 166Q223 166 177 215T130 341Q130 417 174 465T295 514Q351 514 390 484T436 396H386Q379 427 355 446T295 465Q244 465 216 431T187 342Q187 289 217 253T298 216Q334 216 357 235T386 287Z" />
<glyph unicode="&#xac;" glyph-name="logicalnot" horiz-adv-x="891" d="M580 1H1V580H580V1ZM536 44V536H44V44H536Z" />
<glyph unicode="&#xae;" glyph-name="registered" horiz-adv-x="640" d="M290 46Q171 46 86 127T1 330Q1 451 85 532T290 613Q409 613 493 533T577 330Q577 209 493 128T290 46ZM59 330Q59 229 126 161T290 93Q386 93 453 161T520 330Q520 431 454 499T290 567Q193
567 126 499T59 330ZM230 309V166H181V493H305Q421 493 421 400Q421 358 399 337T336 310L429 166H374L287 309H230ZM230 351H290Q340 351 354 363T369 403Q369 431 350 441T298 451H230V351Z" />
<glyph unicode="&#xb7;" glyph-name="middot" horiz-adv-x="215" d="M48 434T84 434T145 410T170 350Q170 312 145 288T84 264T23 289T-2 350T23 410Z" />
<glyph unicode="&#xff;" glyph-name="ydieresis" horiz-adv-x="977" d="M559 354H566Q552 334 523 318T489 299Q466 290 443 282Q452 301 495 324Q515 335 536 346H546L559 354ZM566 408L555 402Q519 402 479 379Q418 344 411 341Q382 320 375 314Q341 285 330
251Q313 208 313 164Q318 137 328 120T358 94Q384 79 413 79Q429 79 445 83T478 94Q484 99 510 116Q543 138 559 160Q553 160 548 160L536 164Q536 172 536 177Q512 180 486 167Q411 130 406 129Q398 132 391 146L395 212Q400 217 408 217Q413 217 423 214T436
211Q480 224 518 243Q541 254 590 284Q594 288 614 302T638 328Q646 337 646 352Q646 365 638 376Q627 390 606 396T566 408ZM328 714Q321 714 317 706Q313 650 309 612T293 533Q286 523 276 484Q271 465 265 454Q260 450 246 447T211 443H190Q180 440 168 439T143
438Q122 438 82 443T22 448L7 441L18 413Q23 409 29 406T40 402L53 394H246L223 311L211 273Q202 268 197 249T186 212Q155 105 125 -2Q141 -4 149 -4Q172 -4 181 4L319 402Q336 413 359 419T411 431Q420 437 451 446T494 468Q492 475 485 480Q467 494 466 496Q449
497 441 497Q422 497 411 489Q377 480 343 472L337 478Q362 544 371 608Q374 625 376 637T378 659Q378 673 374 688T355 708T328 714ZM842 743Q838 743 834 740T824 733L802 619Q789 602 779 574T760 520Q754 494 730 452Q714 424 708 411Q698 399 686 367T668
323Q671 319 671 308Q665 308 662 305T656 299Q649 287 638 261T616 212Q613 191 610 171Q610 156 616 148Q617 148 638 138Q653 131 666 129Q694 142 715 167Q726 179 751 218L795 260L798 255Q798 188 807 137T845 48Q852 44 860 41T875 35T887 33Q914 33 931
59Q929 68 923 75T911 90L884 103Q876 121 871 142T866 186Q866 197 867 202V385Q840 397 839 398Q827 403 821 403Q810 403 802 395Q790 368 770 341Q763 332 733 295L721 273Q715 273 714 278Q794 460 874 642Q882 663 886 674Q894 696 891 710L881 726L842 743Z"
/>
<glyph unicode="&#x2013;" glyph-name="endash" horiz-adv-x="518" d="M478 311L463 323Q394 312 273 299Q111 282 11 282Q9 276 7 270Q7 260 13 249T33 227Q106 227 178 237T315 247Q324 246 329 246Q347 246 363 248Q419 255 424 255Q440 255 448 253Q458 243
469 243L490 256L478 311Z" />
<glyph unicode="&#x2019;" glyph-name="quoteright" horiz-adv-x="175" d="M58 680Q38 648 18 625T-31 581Q-25 570 -10 567Q8 565 14 564Q27 567 40 571T65 585Q79 601 84 626T90 677Q86 684 80 687T68 688L58 680Z" />
<glyph unicode="&#x201c;" glyph-name="quotedblleft" horiz-adv-x="249" d="M218 704Q205 675 200 643T194 573L189 560Q185 556 179 556Q175 556 171 557T164 559Q153 578 145 597T137 635Q137 640 140 652T153 676T171 695Q174 696 186 702T205 708Q213 708
218 704ZM91 708Q78 678 72 646T65 578L62 566Q58 561 50 561Q43 561 38 564Q26 582 18 601T9 640Q9 645 11 655Q16 670 24 680Q36 693 43 701Q46 702 58 707T78 712Q86 712 91 708Z" />
<glyph unicode="&#x201d;" glyph-name="quotedblright" horiz-adv-x="249" d="M28 701Q28 664 23 632T4 570Q9 566 17 566Q25 566 34 570T51 579Q60 589 69 599T82 622T85 640Q85 659 79 675T58 715Q46 718 43 718Q36 718 33 714L28 701ZM157 696Q157 662 151
630T131 566Q136 562 145 562Q153 562 162 565T179 573Q188 583 197 593T211 619Q213 629 213 635Q213 653 205 672T184 710Q179 713 172 713Q165 713 160 708L157 696Z" />
<glyph unicode="&#x2122;" glyph-name="trademark" horiz-adv-x="648" d="M311 652L382 470L451 652H519V404H475L474 605L396 404H366L288 605V404H244V652H311ZM201 652V616H124V404H81V616H4V652H201Z" />
</font>
</defs>
</svg>
